DataType=double
version=3
OpenSimVersion=4.5-2024-01-10-34fd6af
endheader
time	ground_force_1_vx	ground_force_1_vy	ground_force_1_vz	ground_force_1_px	ground_force_1_py	ground_force_1_pz	ground_moment_1_mx	ground_moment_1_my	ground_moment_1_mz	ground_force_2_vx	ground_force_2_vy	ground_force_2_vz	ground_force_2_px	ground_force_2_py	ground_force_2_pz	ground_moment_2_mx	ground_moment_2_my	ground_moment_2_mz
2.235	114.5319717	666.070343	34.83059831	0.804529226	0	0.24132614	-110.7718596	25.78890181	-150.434173	0	0	0	0.806664643	0	0.743203367	0	0	0
2.24	118.4606398	658.1861897	34.39939592	0.804529226	0	0.24132614	-109.6619604	26.60612511	-152.3112505	-2.055626261	21.03447231	-4.329477086	0.806664643	0	0.743203367	4.336094425	0.893109673	3.943170682
2.245	122.1237311	648.6074137	33.81137664	0.804529226	0	0.24132614	-108.249654	27.35977538	-153.5837	1.541225055	43.66100043	-3.303567631	0.806664643	0	0.743203367	8.940119431	0.004547854	7.59069705
2.25	125.6160077	636.9687259	33.1007919	0.804529226	0	0.24132614	-106.4887172	28.02999925	-154.2670278	6.596736201	76.10503308	-0.447467287	0.806664643	0	0.743203367	15.47841861	-1.338896387	12.74952375
2.255	128.8443854	622.9889314	32.19152198	0.804529226	0	0.24132614	-104.3151973	28.56705998	-154.27577	11.66075829	119.1117381	4.867425449	0.806664643	0	0.743203367	24.03009489	-2.985505633	19.55719966
2.26	131.4761773	606.353466	30.97672548	0.804529226	0	0.24132614	-101.6645385	28.93036552	-153.3576435	14.63694737	171.5541727	12.75187316	0.806664643	0	0.743203367	34.35854741	-4.465318402	27.82328197
2.265	133.1855055	586.7307862	29.41020463	0.804529226	0	0.24132614	-98.46935928	29.05699115	-151.2758631	13.46411478	230.3112871	22.26049761	0.806664643	0	0.743203367	45.88890928	-5.331160412	36.95598023
2.27	133.7872563	563.7453529	27.56454342	0.804529226	0	0.24132614	-94.68198261	28.87904427	-147.9945767	6.99532311	290.9902684	31.6412861	0.806664643	0	0.743203367	57.75199399	-5.273518912	46.2683887
2.275	133.1272037	537.1501562	25.50331122	0.804529226	0	0.24132614	-90.28182467	28.34932573	-143.541012	-4.363210647	348.9533144	38.94815105	0.806664643	0	0.743203367	69.03160923	-4.078430279	55.19709532
2.28	130.9311281	507.0059946	23.17257211	0.804529226	0	0.24132614	-85.2804622	27.41648219	-137.8236841	-18.49743002	400.5977622	42.7816106	0.806664643	0	0.743203367	79.0081732	-2.014875928	63.28175498
2.285	126.8595574	473.6696115	20.49648255	0.804529226	0	0.24132614	-79.73823065	26.05064767	-130.7298292	-32.49773789	444.3251093	42.60465913	0.806664643	0	0.743203367	87.35899217	0.50345731	70.09759603
2.29	120.7781565	437.8343895	17.47964544	0.804529226	0	0.24132614	-73.75871062	24.25349866	-122.3788601	-44.45529286	480.4466984	38.95422756	0.806664643	0	0.743203367	94.0842908	3.311245125	75.41410116
2.295	112.9253794	400.3897478	14.2421248	0.804529226	0	0.24132614	-67.48682599	22.08590278	-113.1515157	-54.43304044	509.9428732	32.90502375	0.806664643	0	0.743203367	99.32765655	6.150163994	79.31643939
2.3	103.7483885	362.2849052	10.90694418	0.804529226	0	0.24132614	-61.08346476	19.65327847	-103.3966557	-63.24461633	533.7874822	24.9803711	0.806664643	0	0.743203367	103.3148981	8.960968044	82.11186593
2.305	93.61826659	324.4385594	7.5760305	0.804529226	0	0.24132614	-54.70487776	17.0931818	-93.34153146	-70.84783003	553.590063	14.9300838	0.806664643	0	0.743203367	106.3832115	11.83413024	84.05453624
2.31	82.93349834	287.6894613	4.415905859	0.804529226	0	0.24132614	-48.48578582	14.55265684	-83.21005725	-76.82239338	571.8489185	2.891157359	0.806664643	0	0.743203367	108.9853532	14.65989577	85.28363868
2.315	72.34214594	252.7098765	1.646429802	0.804529226	0	0.24132614	-42.52928091	12.14788601	-73.30608326	-81.80024392	591.0411101	-9.703319602	0.806664643	0	0.743203367	111.6206741	17.37670573	86.13496956
2.32	62.46409205	219.8470482	-0.542656135	0.804529226	0	0.24132614	-36.91517578	9.975078571	-63.91378809	-87.13779656	612.9638863	-20.91073173	0.806664643	0	0.743203367	114.673505	19.8689916	87.23299113
2.325	53.46132965	189.2702168	-2.112208857	0.804529226	0	0.24132614	-31.68755017	8.08998547	-55.17100649	-93.26267326	638.5072196	-29.82480023	0.806664643	0	0.743203367	118.2808665	21.98267948	89.01280283
2.33	45.25536306	161.1405017	-3.114073343	0.804529226	0	0.24132614	-26.86711627	6.506944858	-47.0715266	-99.3958572	666.9693043	-36.91350985	0.806664643	0	0.743203367	122.3577531	23.76612087	91.25596608
2.335	37.94212929	135.5308153	-3.597191582	0.804529226	0	0.24132614	-22.47039805	5.20301443	-39.61783399	-104.8207692	696.1719096	-42.73237912	0.806664643	0	0.743203367	126.6758953	25.17896418	93.41491602
2.34	31.64066092	112.3189586	-3.607645181	0.804529226	0	0.24132614	-18.51113812	4.14213181	-32.93232218	-109.4807675	724.1122517	-47.07334886	0.806664643	0	0.743203367	130.9869083	26.104679	95.2743494
2.345	26.199824	91.42083537	-3.244061871	0.804529226	0	0.24132614	-14.99131027	3.293409064	-27.09387572	-113.3709705	750.0920482	-49.60452959	0.806664643	0	0.743203367	135.1047761	26.59116503	96.95356945
2.35	21.33416662	72.95276706	-2.660222553	0.804529226	0	0.24132614	-11.90012909	2.613311273	-21.94538148	-116.2216076	773.7614709	-50.64952955	0.806664643	0	0.743203367	138.8602422	26.72003183	98.36722007
2.355	16.88607263	56.99724289	-1.995038723	0.804529226	0	0.24132614	-9.225626246	2.048251335	-17.29189664	-117.8907675	793.963666	-51.14164881	0.806664643	0	0.743203367	142.1211935	26.60144016	99.06975203
2.36	12.84850273	43.30050532	-1.342015401	0.804529226	0	0.24132614	-6.946098484	1.559898437	-13.19266268	-118.4174361	809.893061	-51.73647665	0.806664643	0	0.743203367	144.8274903	26.3283052	98.83082013
2.365	9.292750204	31.50217547	-0.727120888	0.804529226	0	0.24132614	-5.040392037	1.126168527	-9.802662881	-117.8458566	822.292989	-52.2349309	0.806664643	0	0.743203367	146.9984703	25.84679233	97.91872343
2.37	6.277781705	21.65140669	-0.198946344	0.804529226	0	0.24132614	-3.481590654	0.733833308	-7.040340134	-116.4295202	832.2413752	-52.05377809	0.806664643	0	0.743203367	148.7222401	25.16440217	96.63014422
2.375	3.729839674	13.93622964	0.179606561	0.804529226	0	0.24132614	-2.251876134	0.396447547	-4.712542624	-114.6168634	839.8780281	-51.01822517	0.806664643	0	0.743203367	150.0563788	24.34479998	94.9319217
2.38	0	0	0	0.804529226	0	0.24132614	0	0	0	-112.6062726	844.9539901	-49.78350029	0.806664643	0	0.743203367	151.0011546	23.47064405	92.7488751
2.385	0	0	0	0.804529226	0	0.24132614	0	0	0	-110.3716645	847.7535445	-49.18034862	0.806664643	0	0.743203367	151.5269079	22.70390974	90.31385325
2.39	0	0	0	0.804529226	0	0.24132614	0	0	0	-108.19616	848.5311496	-49.30170463	0.806664643	0	0.743203367	151.615453	22.06798874	87.93977979
2.395	0	0	0	0.804529226	0	0.24132614	0	0	0	-106.5078268	846.9759926	-49.51540116	0.806664643	0	0.743203367	151.2660055	21.48470108	85.66225648
2.4	0	0	0	0.804529226	0	0.24132614	0	0	0	-105.114237	842.8392056	-49.40748172	0.806664643	0	0.743203367	150.488794	20.93133787	83.32533806
2.405	0	0	0	0.804529226	0	0.24132614	0	0	0	-103.4005056	836.4170515	-49.28219809	0.806664643	0	0.743203367	149.2924833	20.40426006	80.88622015
2.41	0	0	0	0.804529226	0	0.24132614	0	0	0	-101.3240175	828.0132526	-49.59997065	0.806664643	0	0.743203367	147.6868913	19.93231476	78.4370083
2.415	0	0	0	0.804529226	0	0.24132614	0	0	0	-99.33046113	817.5757865	-50.33364542	0.806664643	0	0.743203367	145.7099042	19.48254933	76.02747242
2.42	0	0	0	0.804529226	0	0.24132614	0	0	0	-97.33387063	805.3201975	-51.02037836	0.806664643	0	0.743203367	143.411467	18.97980207	73.5933053
2.425	0	0	0	0.804529226	0	0.24132614	0	0	0	-94.77381794	791.7313563	-51.40243758	0.806664643	0	0.743203367	140.8519767	18.42614788	70.99480979
2.43	0	0	0	0.804529226	0	0.24132614	0	0	0	-91.61684305	777.028961	-51.64689878	0.806664643	0	0.743203367	138.0794843	17.85793257	68.18895308
2.435	0	0	0	0.804529226	0	0.24132614	0	0	0	-88.41385307	761.3080404	-52.06538658	0.806664643	0	0.743203367	135.1413345	17.30651871	65.34137683
2.44	0	0	0	0.804529226	0	0.24132614	0	0	0	-85.3975778	745.0303617	-52.71376109	0.806664643	0	0.743203367	132.0988862	16.79982853	62.64637923
2.445	0	0	0	0.804529226	0	0.24132614	0	0	0	-82.28584205	728.6496011	-53.30577328	0.806664643	0	0.743203367	129.0160865	16.3070562	60.08527392
2.45	0	0	0	0.804529226	0	0.24132614	0	0	0	-78.96498355	712.123369	-53.58309358	0.806664643	0	0.743203367	125.951078	15.81501401	57.47578634
2.455	0	0	0	0.804529226	0	0.24132614	0	0	0	-75.6869451	695.4477983	-53.62010794	0.806664643	0	0.743203367	122.9448608	15.35092857	54.79309681
2.46	0	0	0	0.804529226	0	0.24132614	0	0	0	-72.61142353	679.1480407	-53.66583923	0.806664643	0	0.743203367	120.0372939	14.91854869	52.24194119
2.465	0	0	0	0.804529226	0	0.24132614	0	0	0	-69.68686258	663.7473482	-53.68051965	0.806664643	0	0.743203367	117.2771343	14.52653189	49.89571876
2.47	0	0	0	0.804529226	0	0.24132614	0	0	0	-66.88842308	649.2024459	-53.31183012	0.806664643	0	0.743203367	114.7165969	14.12744387	47.51862921
2.475	0	0	0	0.804529226	0	0.24132614	0	0	0	-64.16187632	635.4580727	-52.34164484	0.806664643	0	0.743203367	112.3844613	13.67604584	44.97398015
2.48	0	0	0	0.804529226	0	0.24132614	0	0	0	-61.42316378	622.9214891	-51.00565753	0.806664643	0	0.743203367	110.2919822	13.22430039	42.44335325
2.485	0	0	0	0.804529226	0	0.24132614	0	0	0	-58.78846425	611.8992272	-49.66043703	0.806664643	0	0.743203367	108.4417481	12.78537876	40.07002824
2.49	0	0	0	0.804529226	0	0.24132614	0	0	0	-56.38362356	602.1747722	-48.34996425	0.806664643	0	0.743203367	106.8439247	12.34350112	37.75334631
2.495	0	0	0	0.804529226	0	0.24132614	0	0	0	-54.0065373	593.6182559	-46.8711786	0.806664643	0	0.743203367	105.51075	11.89616859	35.38343841
2.5	0	0	0	0.804529226	0	0.24132614	0	0	0	-51.44399454	586.4974705	-45.15859209	0.806664643	0	0.743203367	104.4365834	11.41895332	33.00959647
2.505	0	0	0	0.804529226	0	0.24132614	0	0	0	-48.91295891	580.8720218	-43.41435982	0.806664643	0	0.743203367	103.6002444	10.93973765	30.71824818
2.51	0	0	0	0.804529226	0	0.24132614	0	0	0	-46.6976221	576.4601555	-41.88978717	0.806664643	0	0.743203367	102.9839652	10.4888273	28.47641013
2.515	0	0	0	0.804529226	0	0.24132614	0	0	0	-44.60253161	573.2322438	-40.619683	0.806664643	0	0.743203367	102.5820903	10.03891849	26.19672575
2.52	0	0	0	0.804529226	0	0.24132614	0	0	0	-42.31842768	571.3581586	-39.42826771	0.806664643	0	0.743203367	102.3972456	9.590928842	23.84424031
2.525	0	0	0	0.804529226	0	0.24132614	0	0	0	-40.05165479	570.7088423	-38.16815567	0.806664643	0	0.743203367	102.4204396	9.134296164	21.38752871
2.53	0	0	0	0.804529226	0	0.24132614	0	0	0	-38.12209278	570.9922478	-36.90322661	0.806664643	0	0.743203367	102.6212077	8.660380632	18.84640539
2.535	0	0	0	0.804529226	0	0.24132614	0	0	0	-36.35535939	572.1772296	-35.83831644	0.806664643	0	0.743203367	102.9724708	8.225704055	16.28343737
2.54	0	0	0	0.804529226	0	0.24132614	0	0	0	-34.45643984	574.3166922	-35.00361452	0.806664643	0	0.743203367	103.4591105	7.83401755	13.67454718
2.545	0	0	0	0.804529226	0	0.24132614	0	0	0	-32.54849976	577.1676887	-34.17994063	0.806664643	0	0.743203367	104.0725052	7.443660476	10.92451986
2.55	0	0	0	0.804529226	0	0.24132614	0	0	0	-30.85187486	580.4612507	-33.22024473	0.806664643	0	0.743203367	104.8009235	7.0473467	8.024261031
2.555	0	0	0	0.804529226	0	0.24132614	0	0	0	-29.22623528	584.2992948	-32.28576232	0.806664643	0	0.743203367	105.6292042	6.6467063	5.046834999
2.56	0	0	0	0.804529226	0	0.24132614	0	0	0	-27.45131539	588.7733911	-31.58765235	0.806664643	0	0.743203367	106.5373361	6.261771368	1.991738508
2.565	0	0	0	0.804529226	0	0.24132614	0	0	0	-25.63362132	593.5817873	-31.10596214	0.806664643	0	0.743203367	107.5198336	5.89247781	-1.247829429
2.57	0	0	0	0.804529226	0	0.24132614	0	0	0	-23.9393777	598.5430535	-30.61416675	0.806664643	0	0.743203367	108.5702959	5.518209535	-4.676901434
2.575	0	0	0	0.804529226	0	0.24132614	0	0	0	-22.28115448	603.842765	-30.0022522	0.806664643	0	0.743203367	109.6747067	5.134905696	-8.194681504
2.58	0	0	0	0.804529226	0	0.24132614	0	0	0	-20.51296473	609.4792612	-29.38444226	0.806664643	0	0.743203367	110.8081963	4.759041487	-11.77159887
2.585	0	0	0	0.804529226	0	0.24132614	0	0	0	-18.6460809	615.0509819	-28.87712427	0.806664643	0	0.743203367	111.9321835	4.38899721	-15.46206204
2.59	0	0	0	0.804529226	0	0.24132614	0	0	0	-16.71770088	620.32809	-28.48797103	0.806664643	0	0.743203367	113.0249789	4.003616217	-19.28365362
